<?xml version="1.0" encoding="UTF-8"?>
<svg xmlns="http://www.w3.org/2000/svg" version="1.1" width="200" height="200" viewBox="0 0 200 200"><rect x="0" y="0" width="200" height="200" fill="#ffffff"/><g transform="scale(9.524)"><g transform="translate(0,0)"><path fill-rule="evenodd" d="M10 0L10 1L8 1L8 2L10 2L10 3L8 3L8 4L9 4L9 5L8 5L8 7L9 7L9 8L6 8L6 9L9 9L9 10L8 10L8 12L6 12L6 11L7 11L7 10L6 10L6 11L5 11L5 12L4 12L4 11L3 11L3 9L5 9L5 8L0 8L0 9L1 9L1 10L2 10L2 11L3 11L3 13L8 13L8 15L9 15L9 16L8 16L8 21L9 21L9 19L11 19L11 20L12 20L12 21L13 21L13 20L15 20L15 21L16 21L16 20L17 20L17 19L16 19L16 18L18 18L18 20L19 20L19 21L20 21L20 20L19 20L19 17L17 17L17 16L20 16L20 17L21 17L21 16L20 16L20 14L21 14L21 11L16 11L16 10L17 10L17 9L18 9L18 10L19 10L19 9L20 9L20 10L21 10L21 9L20 9L20 8L19 8L19 9L18 9L18 8L17 8L17 9L16 9L16 8L15 8L15 9L16 9L16 10L15 10L15 12L14 12L14 11L13 11L13 10L14 10L14 8L13 8L13 9L12 9L12 8L11 8L11 9L9 9L9 8L10 8L10 7L11 7L11 6L12 6L12 7L13 7L13 6L12 6L12 5L13 5L13 0ZM11 1L11 2L12 2L12 1ZM10 3L10 5L9 5L9 7L10 7L10 6L11 6L11 5L12 5L12 3ZM9 10L9 12L8 12L8 13L9 13L9 14L10 14L10 13L11 13L11 14L12 14L12 15L10 15L10 16L9 16L9 18L11 18L11 19L12 19L12 18L11 18L11 17L10 17L10 16L12 16L12 17L15 17L15 18L16 18L16 17L15 17L15 14L16 14L16 15L17 15L17 14L19 14L19 13L20 13L20 12L16 12L16 13L15 13L15 14L14 14L14 15L13 15L13 14L12 14L12 12L10 12L10 11L12 11L12 10ZM0 12L0 13L1 13L1 12ZM16 13L16 14L17 14L17 13ZM13 18L13 19L14 19L14 18ZM0 0L0 7L7 7L7 0ZM1 1L1 6L6 6L6 1ZM2 2L2 5L5 5L5 2ZM14 0L14 7L21 7L21 0ZM15 1L15 6L20 6L20 1ZM16 2L16 5L19 5L19 2ZM0 14L0 21L7 21L7 14ZM1 15L1 20L6 20L6 15ZM2 16L2 19L5 19L5 16Z" fill="#000000"/></g></g></svg>
