<?xml version="1.0" encoding="UTF-8"?>
<svg xmlns="http://www.w3.org/2000/svg" version="1.1" width="500" height="500" viewBox="0 0 500 500"><rect x="0" y="0" width="500" height="500" fill="#ffffff"/><g transform="scale(23.81)"><g transform="translate(0,0)"><path fill-rule="evenodd" d="M8 0L8 1L9 1L9 0ZM10 0L10 2L8 2L8 5L9 5L9 6L8 6L8 7L9 7L9 6L10 6L10 7L11 7L11 8L8 8L8 9L7 9L7 8L6 8L6 9L4 9L4 8L0 8L0 10L1 10L1 9L3 9L3 10L2 10L2 11L1 11L1 12L0 12L0 13L4 13L4 12L5 12L5 13L8 13L8 14L9 14L9 12L10 12L10 13L11 13L11 15L10 15L10 16L11 16L11 15L13 15L13 14L14 14L14 13L15 13L15 14L16 14L16 15L15 15L15 16L14 16L14 19L13 19L13 18L12 18L12 17L13 17L13 16L12 16L12 17L11 17L11 18L9 18L9 17L8 17L8 21L10 21L10 20L11 20L11 18L12 18L12 19L13 19L13 21L14 21L14 19L16 19L16 21L17 21L17 20L18 20L18 21L19 21L19 20L18 20L18 19L19 19L19 18L20 18L20 17L19 17L19 16L20 16L20 15L18 15L18 14L20 14L20 13L21 13L21 8L20 8L20 13L16 13L16 11L15 11L15 12L12 12L12 10L13 10L13 11L14 11L14 8L13 8L13 5L12 5L12 4L13 4L13 3L12 3L12 1L13 1L13 0ZM10 2L10 4L9 4L9 5L11 5L11 4L12 4L12 3L11 3L11 2ZM11 6L11 7L12 7L12 6ZM16 8L16 10L17 10L17 12L18 12L18 11L19 11L19 8ZM6 9L6 10L5 10L5 12L7 12L7 11L6 11L6 10L7 10L7 9ZM9 9L9 10L8 10L8 12L9 12L9 10L10 10L10 12L11 12L11 13L12 13L12 14L13 14L13 13L12 13L12 12L11 12L11 9ZM17 9L17 10L18 10L18 9ZM3 10L3 11L2 11L2 12L3 12L3 11L4 11L4 10ZM15 16L15 17L16 17L16 19L18 19L18 18L19 18L19 17L18 17L18 18L17 18L17 17L16 17L16 16ZM20 19L20 20L21 20L21 19ZM0 0L0 7L7 7L7 0ZM1 1L1 6L6 6L6 1ZM2 2L2 5L5 5L5 2ZM14 0L14 7L21 7L21 0ZM15 1L15 6L20 6L20 1ZM16 2L16 5L19 5L19 2ZM0 14L0 21L7 21L7 14ZM1 15L1 20L6 20L6 15ZM2 16L2 19L5 19L5 16Z" fill="#000000"/></g></g></svg>
